<?xml version="1.0" encoding="UTF-8"?>
<!DOCTYPE svg PUBLIC "-//W3C//DTD SVG 1.1//EN" "http://www.w3.org/Graphics/SVG/1.1/DTD/svg11.dtd">
<!-- Creator: CorelDRAW (Evaluation Version) -->
<svg xmlns="http://www.w3.org/2000/svg" xml:space="preserve" width="1000px" height="1000px" version="1.1" style="shape-rendering:geometricPrecision; text-rendering:geometricPrecision; image-rendering:optimizeQuality; fill-rule:evenodd; clip-rule:evenodd"
viewBox="0 0 1000 1000"
 xmlns:xlink="http://www.w3.org/1999/xlink"
 xmlns:xodm="http://www.corel.com/coreldraw/odm/2003">
 <defs>
  <style type="text/css">
   <![CDATA[
    .str0 {stroke:white;stroke-width:25;stroke-miterlimit:22.9256}
    .fil0 {fill:none}
    .fil1 {fill:white}
   ]]>
  </style>
 </defs>
 <g id="Layer_x0020_1">
  <metadata id="CorelCorpID_0Corel-Layer"/>
  <path class="fil0 str0" d="M586.48 910.49l-307.63 0c-104.16,0 -189.38,-85.22 -189.38,-189.38l0 -442.3c0,-104.15 85.22,-189.37 189.38,-189.37l85.41 0m44.61 0l312.28 0c104.16,0 189.38,85.22 189.38,189.37l0 442.3c0,104.16 -85.22,189.38 -189.38,189.38l-92.88 0"/>
  <path class="fil1" d="M628.27 910.49l0 -587.49 282.26 0 0 402.03c0,102.01 -85.22,185.46 -189.38,185.46l-92.88 0z"/>
  <rect class="fil1" x="408.87" y="83.58" width="177.61" height="832.85"/>
  <path class="fil1" d="M364.26 89.44l0 179.94 -274.55 0c4.68,-99.82 83.16,-179.94 178.44,-179.94l96.11 0z"/>
  <path class="fil1" d="M556.91 269.36l0 -179.92 164.24 0c100.99,0 184.17,80.11 189.14,179.92l-353.38 0z"/>
 </g>
</svg>
