<?xml version="1.0" encoding="UTF-8"?>
<!DOCTYPE svg PUBLIC "-//W3C//DTD SVG 1.1//EN" "http://www.w3.org/Graphics/SVG/1.1/DTD/svg11.dtd">
<!-- Creator: CorelDRAW (Evaluation Version) -->
<svg xmlns="http://www.w3.org/2000/svg" xml:space="preserve" width="1000px" height="1000px" version="1.1" style="shape-rendering:geometricPrecision; text-rendering:geometricPrecision; image-rendering:optimizeQuality; fill-rule:evenodd; clip-rule:evenodd"
viewBox="0 0 1000 1000"
 xmlns:xlink="http://www.w3.org/1999/xlink"
 xmlns:xodm="http://www.corel.com/coreldraw/odm/2003">
 <defs>
  <style type="text/css">
   <![CDATA[
    .str0 {stroke:#EEF3ED;stroke-width:60;stroke-miterlimit:22.9256}
    .fil0 {fill:#EEF3ED}
    .fil1 {fill:#black}
   ]]>
  </style>
 </defs>
 <g id="Layer_x0020_1">
  <metadata id="CorelCorpID_0Corel-Layer"/>
  <path class="fil0 str0" d="M192.49 101.57l612.46 0c84.98,0 154.5,69.52 154.5,154.49l0 452.45c0,84.97 -69.52,154.49 -154.5,154.49l-612.46 0c-84.97,0 -154.49,-69.52 -154.49,-154.49l0 -452.45c0,-84.97 69.52,-154.49 154.49,-154.49z"/>
  <path class="fil1" d="M192.49 101.57l612.46 0c5.08,0 10.12,0.25 15.08,0.74l0 69.03 0 149.24c-37.77,-23.71 -80.09,-37.63 -123.55,-37.63 -139.73,0.85 -268.38,144 -268.38,294.81 0,126.86 90.45,249.5 202.86,285.24l-321.21 0 0 -132.08 -72.43 0c-53.67,0 -53.67,0 -54.53,-40.05l0 -255.61 31.53 0 72.42 0 0 -144.85 -72.42 0 -31.53 0 0 -35.78 0 -72.42 -125.87 0c26.3,-47.95 77.3,-80.64 135.57,-80.64z"/>
  <path class="fil1" d="M572.94 577.76c0,96.27 48.57,151.66 123.54,150.81 74.56,0 122.7,-51.84 123.55,-145.85l0 -4.96c0,-95.43 -47.71,-149.11 -123.55,-149.96 -75.83,0 -123.54,54.53 -123.54,149.96z"/>
 </g>
</svg>
