<svg width="1063" height="618" viewBox="0 0 1063 618" fill="none" xmlns="http://www.w3.org/2000/svg">
<g id="Component 3">
<g id="Property 1=Vector 1">
<path id="Vector 1" d="M20 42V598" stroke="#F8F9FA"/>
</g>
<g id="Property 1=Vector 3">
<path id="Vector 3" d="M1043 42V598" stroke="#F8F9FA"/>
</g>
<g id="Property 1=Component 1">
<g id="Component 1">
<path id="Vector 2" d="M20 124.68C22.9455 124.68 25.3333 122.292 25.3333 119.346C25.3333 116.401 22.9455 114.013 20 114.013C17.0545 114.013 14.6667 116.401 14.6667 119.346C14.6667 122.292 17.0545 124.68 20 124.68ZM418.009 124.68C420.955 124.68 423.342 122.292 423.342 119.346C423.342 116.401 420.955 114.013 418.009 114.013C415.064 114.013 412.676 116.401 412.676 119.346C412.676 122.292 415.064 124.68 418.009 124.68ZM20 120.346L418.009 120.346V118.346L20 118.346V120.346Z" fill="#F8F9FA"/>
<g id="Ellipse 1" style="mix-blend-mode:exclusion">
<circle cx="418.005" cy="119" r="4" fill="#D9D9D9"/>
</g>
</g>
</g>
<g id="Property 1=Component 2">
<g id="Component 2">
<path id="Vector 2_2" d="M1043 113.32C1040.05 113.32 1037.67 115.708 1037.67 118.654C1037.67 121.599 1040.05 123.987 1043 123.987C1045.95 123.987 1048.33 121.599 1048.33 118.654C1048.33 115.708 1045.95 113.32 1043 113.32ZM584.602 113.32C581.656 113.32 579.268 115.708 579.268 118.654C579.268 121.599 581.656 123.987 584.602 123.987C587.547 123.987 589.935 121.599 589.935 118.654C589.935 115.708 587.547 113.32 584.602 113.32ZM1043 117.654L584.602 117.654V119.654L1043 119.654V117.654Z" fill="#F8F9FA"/>
<g id="Ellipse 1_2" style="mix-blend-mode:exclusion">
<ellipse cx="584.607" cy="119" rx="4.60692" ry="4" transform="rotate(180 584.607 119)" fill="#D9D9D9"/>
</g>
</g>
</g>
<g id="Property 1=Line 1">
<line id="Line 1" x1="496" y1="84.006" x2="496" y2="41.994" stroke="white"/>
</g>
<g id="Property 1=Line 2">
<line id="Line 2" x1="441.004" y1="40.5" x2="553.005" y2="41.4825" stroke="white"/>
</g>
<g id="Property 1=Start PB">
<path id="Start PB" d="M473.463 28.5801V28.4453H475.232V28.5625C475.232 28.9922 475.377 29.3164 475.666 29.5352C475.959 29.75 476.365 29.8574 476.885 29.8574C477.404 29.8574 477.803 29.7559 478.08 29.5527C478.357 29.3457 478.496 29.0742 478.496 28.7383C478.496 28.3984 478.369 28.1367 478.115 27.9531C477.861 27.7695 477.287 27.5684 476.393 27.3496C475.459 27.1191 474.76 26.8066 474.295 26.4121C473.834 26.0137 473.604 25.4629 473.604 24.7598C473.604 24.0215 473.893 23.4258 474.471 22.9727C475.049 22.5195 475.836 22.293 476.832 22.293C477.82 22.293 478.611 22.5312 479.205 23.0078C479.799 23.4844 480.096 24.0996 480.096 24.8535V24.9824H478.35V24.8652C478.35 24.4902 478.223 24.1895 477.969 23.9629C477.715 23.7324 477.336 23.6172 476.832 23.6172C476.336 23.6172 475.969 23.709 475.73 23.8926C475.492 24.0723 475.373 24.3105 475.373 24.6074C475.373 24.9277 475.494 25.166 475.736 25.3223C475.979 25.4785 476.525 25.6641 477.377 25.8789C478.307 26.1172 479.02 26.4434 479.516 26.8574C480.012 27.2676 480.26 27.8574 480.26 28.627C480.26 29.4121 479.953 30.0332 479.34 30.4902C478.727 30.9473 477.908 31.1758 476.885 31.1758C475.869 31.1758 475.045 30.9512 474.412 30.502C473.779 30.0488 473.463 29.4082 473.463 28.5801ZM480.664 25.9434V24.7246H484.525V25.9434H480.664ZM481.637 29.1836V25.3809L481.643 25.2109V23.3477H483.324V29.1602C483.324 29.4375 483.377 29.6328 483.482 29.7461C483.588 29.8555 483.738 29.9102 483.934 29.9102C484.031 29.9102 484.127 29.8984 484.221 29.875C484.314 29.8516 484.406 29.8223 484.496 29.7871V30.9941C484.402 31.041 484.273 31.082 484.109 31.1172C483.945 31.1562 483.768 31.1758 483.576 31.1758C482.99 31.1758 482.52 31.0156 482.164 30.6953C481.812 30.375 481.637 29.8711 481.637 29.1836ZM485.264 29.1543C485.264 28.4707 485.539 27.9531 486.09 27.6016C486.641 27.2461 487.334 27.0664 488.17 27.0625H489.418V26.6699C489.418 26.3809 489.338 26.1484 489.178 25.9727C489.021 25.793 488.748 25.7031 488.357 25.7031C487.967 25.7031 487.688 25.7812 487.52 25.9375C487.355 26.0898 487.273 26.2734 487.273 26.4883V26.5586H485.598V26.4883C485.598 25.9414 485.855 25.4824 486.371 25.1113C486.891 24.7363 487.572 24.5488 488.416 24.5488C489.26 24.5488 489.92 24.7246 490.396 25.0762C490.873 25.4238 491.111 25.957 491.111 26.6758V29.6055C491.111 29.8594 491.133 30.0996 491.176 30.3262C491.219 30.5488 491.277 30.7422 491.352 30.9062V31H489.693C489.646 30.9062 489.604 30.7852 489.564 30.6367C489.525 30.4844 489.498 30.3359 489.482 30.1914C489.357 30.4336 489.121 30.6484 488.773 30.8359C488.43 31.0234 488 31.1172 487.484 31.1172C486.863 31.1172 486.338 30.9531 485.908 30.625C485.479 30.293 485.264 29.8027 485.264 29.1543ZM486.957 29.0312C486.957 29.3164 487.041 29.543 487.209 29.7109C487.377 29.8789 487.641 29.9629 488 29.9629C488.387 29.9629 488.719 29.8418 488.996 29.5996C489.277 29.3535 489.418 29.0723 489.418 28.7559V28.0938H488.369C487.896 28.0938 487.543 28.1777 487.309 28.3457C487.074 28.5098 486.957 28.7383 486.957 29.0312ZM492.746 31V24.7246H494.346L494.387 25.4277H494.416C494.549 25.1934 494.729 24.9902 494.955 24.8184C495.186 24.6426 495.449 24.5547 495.746 24.5547C495.828 24.5547 495.912 24.5645 495.998 24.584C496.084 24.6035 496.145 24.6211 496.18 24.6367V26.0898C496.109 26.0742 496.033 26.0625 495.951 26.0547C495.873 26.043 495.787 26.0371 495.693 26.0371C495.4 26.0371 495.143 26.1211 494.92 26.2891C494.701 26.4531 494.541 26.6582 494.439 26.9043V31H492.746ZM496.648 25.9434V24.7246H500.51V25.9434H496.648ZM497.621 29.1836V25.3809L497.627 25.2109V23.3477H499.309V29.1602C499.309 29.4375 499.361 29.6328 499.467 29.7461C499.572 29.8555 499.723 29.9102 499.918 29.9102C500.016 29.9102 500.111 29.8984 500.205 29.875C500.299 29.8516 500.391 29.8223 500.48 29.7871V30.9941C500.387 31.041 500.258 31.082 500.094 31.1172C499.93 31.1562 499.752 31.1758 499.561 31.1758C498.975 31.1758 498.504 31.0156 498.148 30.6953C497.797 30.375 497.621 29.8711 497.621 29.1836ZM504.641 31V22.4688H507.887C508.906 22.4688 509.691 22.709 510.242 23.1895C510.793 23.6699 511.068 24.3418 511.068 25.2051C511.068 26.0684 510.793 26.7461 510.242 27.2383C509.695 27.7266 508.91 27.9707 507.887 27.9707H506.381V31H504.641ZM506.381 26.6758H507.775C508.354 26.6758 508.756 26.543 508.982 26.2773C509.209 26.0078 509.322 25.6523 509.322 25.2109C509.322 24.7695 509.209 24.418 508.982 24.1562C508.756 23.8945 508.354 23.7637 507.775 23.7637H506.381V26.6758ZM512.316 31V22.4688H515.51C516.475 22.4688 517.232 22.6523 517.783 23.0195C518.334 23.3828 518.609 23.9512 518.609 24.7246C518.609 25.1934 518.498 25.5781 518.275 25.8789C518.057 26.1797 517.783 26.3867 517.455 26.5V26.5234C517.857 26.6406 518.188 26.8691 518.445 27.209C518.707 27.5449 518.838 27.9883 518.838 28.5391C518.838 29.3203 518.549 29.9258 517.971 30.3555C517.393 30.7852 516.631 31 515.686 31H512.316ZM514.045 29.7695H515.656C516.156 29.7695 516.521 29.6523 516.752 29.418C516.986 29.1797 517.104 28.8594 517.104 28.457C517.104 28.0586 516.986 27.7422 516.752 27.5078C516.521 27.2734 516.156 27.1562 515.656 27.1562H514.045V29.7695ZM514.045 25.9844H515.486C515.982 25.9844 516.338 25.8828 516.553 25.6797C516.771 25.4766 516.881 25.1953 516.881 24.8359C516.881 24.4727 516.771 24.1934 516.553 23.998C516.334 23.8027 515.979 23.7051 515.486 23.7051H514.045V25.9844Z" fill="white"/>
</g>
<g id="Property 1=Vector 5">
<path id="Vector 5" d="M14.6667 514C14.6667 516.946 17.0545 519.333 20 519.333C22.9455 519.333 25.3333 516.946 25.3333 514C25.3333 511.054 22.9455 508.667 20 508.667C17.0545 508.667 14.6667 511.054 14.6667 514ZM201.167 514C201.167 516.946 203.554 519.333 206.5 519.333C209.446 519.333 211.833 516.946 211.833 514C211.833 511.054 209.446 508.667 206.5 508.667C203.554 508.667 201.167 511.054 201.167 514ZM20 515H206.5V513H20V515Z" fill="#F8F9FA"/>
</g>
<g id="Property 1=Vector 6">
<path id="Vector 6" d="M250.667 514C250.667 516.946 253.054 519.333 256 519.333C258.946 519.333 261.333 516.946 261.333 514C261.333 511.054 258.946 508.667 256 508.667C253.054 508.667 250.667 511.054 250.667 514ZM437.167 514C437.167 516.946 439.554 519.333 442.5 519.333C445.446 519.333 447.833 516.946 447.833 514C447.833 511.054 445.446 508.667 442.5 508.667C439.554 508.667 437.167 511.054 437.167 514ZM256 515H442.5V513H256V515Z" fill="#F8F9FA"/>
</g>
<g id="Property 1=Line 3">
<line id="Line 3" x1="209.5" y1="580.24" x2="209.5" y2="447" stroke="white"/>
</g>
<g id="Property 1=Line 4">
<line id="Line 4" x1="255.5" y1="580.24" x2="255.5" y2="447" stroke="white"/>
</g>
<g id="Property 1=Ellipse 2">
<path id="Ellipse 2" d="M495 513.5C495 528.071 482.307 540 466.5 540C450.693 540 438 528.071 438 513.5C438 498.929 450.693 487 466.5 487C482.307 487 495 498.929 495 513.5Z" fill="#F8F9FA" stroke="black" stroke-width="2"/>
</g>
<g id="Property 1=Line 5">
<path id="Line 5" d="M447 495L485 533" stroke="black"/>
</g>
<g id="Property 1=Line 6">
<line id="Line 6" x1="451.167" y1="535.216" x2="481.59" y2="491.713" stroke="black"/>
</g>
<g id="Property 1=Motor">
<path id="Motor" d="M274.938 463V454.469H277.176L279.221 460.041C279.271 460.174 279.314 460.301 279.35 460.422C279.389 460.543 279.424 460.674 279.455 460.814H279.496C279.523 460.674 279.557 460.543 279.596 460.422C279.635 460.297 279.676 460.17 279.719 460.041L281.752 454.469H284.049V463H282.32V457.439C282.32 457.311 282.322 457.168 282.326 457.012C282.334 456.852 282.344 456.707 282.355 456.578H282.309C282.281 456.707 282.246 456.852 282.203 457.012C282.164 457.168 282.121 457.311 282.074 457.439L280.047 463H278.623L276.59 457.439C276.543 457.307 276.498 457.162 276.455 457.006C276.416 456.846 276.387 456.701 276.367 456.572H276.314C276.326 456.701 276.336 456.846 276.344 457.006C276.352 457.162 276.355 457.307 276.355 457.439V463H274.938ZM285.432 459.953V459.766C285.432 458.793 285.73 458.014 286.328 457.428C286.926 456.842 287.709 456.549 288.678 456.549C289.65 456.549 290.436 456.842 291.033 457.428C291.631 458.014 291.93 458.793 291.93 459.766V459.953C291.93 460.926 291.631 461.707 291.033 462.297C290.436 462.883 289.65 463.176 288.678 463.176C287.709 463.176 286.926 462.883 286.328 462.297C285.73 461.707 285.432 460.926 285.432 459.953ZM287.16 459.701V460.018C287.16 460.604 287.291 461.064 287.553 461.4C287.814 461.736 288.189 461.904 288.678 461.904C289.17 461.904 289.545 461.736 289.803 461.4C290.064 461.064 290.195 460.604 290.195 460.018V459.701C290.195 459.119 290.062 458.66 289.797 458.324C289.535 457.988 289.162 457.82 288.678 457.82C288.193 457.82 287.818 457.988 287.553 458.324C287.291 458.66 287.16 459.119 287.16 459.701ZM292.387 457.943V456.725H296.248V457.943H292.387ZM293.359 461.184V457.381L293.365 457.211V455.348H295.047V461.16C295.047 461.438 295.1 461.633 295.205 461.746C295.311 461.855 295.461 461.91 295.656 461.91C295.754 461.91 295.85 461.898 295.943 461.875C296.037 461.852 296.129 461.822 296.219 461.787V462.994C296.125 463.041 295.996 463.082 295.832 463.117C295.668 463.156 295.49 463.176 295.299 463.176C294.713 463.176 294.242 463.016 293.887 462.695C293.535 462.375 293.359 461.871 293.359 461.184ZM296.846 459.953V459.766C296.846 458.793 297.145 458.014 297.742 457.428C298.34 456.842 299.123 456.549 300.092 456.549C301.064 456.549 301.85 456.842 302.447 457.428C303.045 458.014 303.344 458.793 303.344 459.766V459.953C303.344 460.926 303.045 461.707 302.447 462.297C301.85 462.883 301.064 463.176 300.092 463.176C299.123 463.176 298.34 462.883 297.742 462.297C297.145 461.707 296.846 460.926 296.846 459.953ZM298.574 459.701V460.018C298.574 460.604 298.705 461.064 298.967 461.4C299.229 461.736 299.604 461.904 300.092 461.904C300.584 461.904 300.959 461.736 301.217 461.4C301.479 461.064 301.609 460.604 301.609 460.018V459.701C301.609 459.119 301.477 458.66 301.211 458.324C300.949 457.988 300.576 457.82 300.092 457.82C299.607 457.82 299.232 457.988 298.967 458.324C298.705 458.66 298.574 459.119 298.574 459.701ZM304.598 463V456.725H306.197L306.238 457.428H306.268C306.4 457.193 306.58 456.99 306.807 456.818C307.037 456.643 307.301 456.555 307.598 456.555C307.68 456.555 307.764 456.564 307.85 456.584C307.936 456.604 307.996 456.621 308.031 456.637V458.09C307.961 458.074 307.885 458.062 307.803 458.055C307.725 458.043 307.639 458.037 307.545 458.037C307.252 458.037 306.994 458.121 306.771 458.289C306.553 458.453 306.393 458.658 306.291 458.904V463H304.598Z" fill="white"/>
</g>
<g id="Property 1=Lamp System ON">
<path id="Lamp System ON" d="M509.938 480V471.469H511.678V478.693H515.562V480H509.938ZM516.236 478.154C516.236 477.471 516.512 476.953 517.062 476.602C517.613 476.246 518.307 476.066 519.143 476.062H520.391V475.67C520.391 475.381 520.311 475.148 520.15 474.973C519.994 474.793 519.721 474.703 519.33 474.703C518.939 474.703 518.66 474.781 518.492 474.938C518.328 475.09 518.246 475.273 518.246 475.488V475.559H516.57V475.488C516.57 474.941 516.828 474.482 517.344 474.111C517.863 473.736 518.545 473.549 519.389 473.549C520.232 473.549 520.893 473.725 521.369 474.076C521.846 474.424 522.084 474.957 522.084 475.676V478.605C522.084 478.859 522.105 479.1 522.148 479.326C522.191 479.549 522.25 479.742 522.324 479.906V480H520.666C520.619 479.906 520.576 479.785 520.537 479.637C520.498 479.484 520.471 479.336 520.455 479.191C520.33 479.434 520.094 479.648 519.746 479.836C519.402 480.023 518.973 480.117 518.457 480.117C517.836 480.117 517.311 479.953 516.881 479.625C516.451 479.293 516.236 478.803 516.236 478.154ZM517.93 478.031C517.93 478.316 518.014 478.543 518.182 478.711C518.35 478.879 518.613 478.963 518.973 478.963C519.359 478.963 519.691 478.842 519.969 478.6C520.25 478.354 520.391 478.072 520.391 477.756V477.094H519.342C518.869 477.094 518.516 477.178 518.281 477.346C518.047 477.51 517.93 477.738 517.93 478.031ZM523.719 480V473.725H525.312L525.354 474.463H525.389C525.584 474.186 525.84 473.975 526.156 473.83C526.473 473.682 526.814 473.607 527.182 473.607C527.627 473.607 528.012 473.699 528.336 473.883C528.66 474.062 528.9 474.33 529.057 474.686H529.08C529.307 474.326 529.604 474.057 529.971 473.877C530.338 473.697 530.73 473.607 531.148 473.607C531.797 473.607 532.316 473.805 532.707 474.199C533.102 474.59 533.299 475.246 533.299 476.168V480H531.605V476.092C531.605 475.678 531.52 475.375 531.348 475.184C531.18 474.992 530.932 474.895 530.604 474.891C530.322 474.891 530.074 474.971 529.859 475.131C529.648 475.291 529.48 475.508 529.355 475.781V480H527.656V476.104C527.656 475.682 527.57 475.375 527.398 475.184C527.227 474.988 526.977 474.891 526.648 474.891C526.363 474.891 526.115 474.971 525.904 475.131C525.697 475.287 525.531 475.504 525.406 475.781V480H523.719ZM534.84 482.438V473.725H536.422L536.463 474.451H536.492C536.629 474.209 536.861 474.008 537.189 473.848C537.518 473.688 537.887 473.607 538.297 473.607C539.117 473.607 539.777 473.898 540.277 474.48C540.781 475.059 541.033 475.82 541.033 476.766V476.953C541.033 477.898 540.785 478.662 540.289 479.244C539.793 479.826 539.141 480.117 538.332 480.117C537.926 480.117 537.562 480.051 537.242 479.918C536.926 479.781 536.688 479.594 536.527 479.355V482.438H534.84ZM536.527 477.938C536.629 478.18 536.799 478.393 537.037 478.576C537.279 478.76 537.566 478.852 537.898 478.852C538.375 478.852 538.727 478.686 538.953 478.354C539.184 478.021 539.299 477.576 539.299 477.018V476.701C539.299 476.146 539.184 475.703 538.953 475.371C538.727 475.039 538.373 474.873 537.893 474.873C537.553 474.873 537.266 474.963 537.031 475.143C536.801 475.322 536.633 475.531 536.527 475.77V477.938ZM544.877 477.58V477.445H546.646V477.562C546.646 477.992 546.791 478.316 547.08 478.535C547.373 478.75 547.779 478.857 548.299 478.857C548.818 478.857 549.217 478.756 549.494 478.553C549.771 478.346 549.91 478.074 549.91 477.738C549.91 477.398 549.783 477.137 549.529 476.953C549.275 476.77 548.701 476.568 547.807 476.35C546.873 476.119 546.174 475.807 545.709 475.412C545.248 475.014 545.018 474.463 545.018 473.76C545.018 473.021 545.307 472.426 545.885 471.973C546.463 471.52 547.25 471.293 548.246 471.293C549.234 471.293 550.025 471.531 550.619 472.008C551.213 472.484 551.51 473.1 551.51 473.854V473.982H549.764V473.865C549.764 473.49 549.637 473.189 549.383 472.963C549.129 472.732 548.75 472.617 548.246 472.617C547.75 472.617 547.383 472.709 547.145 472.893C546.906 473.072 546.787 473.311 546.787 473.607C546.787 473.928 546.908 474.166 547.15 474.322C547.393 474.479 547.939 474.664 548.791 474.879C549.721 475.117 550.434 475.443 550.93 475.857C551.426 476.268 551.674 476.857 551.674 477.627C551.674 478.412 551.367 479.033 550.754 479.49C550.141 479.947 549.322 480.176 548.299 480.176C547.283 480.176 546.459 479.951 545.826 479.502C545.193 479.049 544.877 478.408 544.877 477.58ZM552.635 482.438L552.652 481.189C552.75 481.221 552.865 481.246 552.998 481.266C553.131 481.289 553.254 481.301 553.367 481.301C553.645 481.301 553.881 481.213 554.076 481.037C554.271 480.865 554.449 480.508 554.609 479.965L554.521 479.959L552.061 473.725H553.771L555.102 477.428C555.152 477.58 555.197 477.727 555.236 477.867C555.275 478.004 555.307 478.143 555.33 478.283H555.371C555.398 478.143 555.43 478.004 555.465 477.867C555.5 477.727 555.543 477.58 555.594 477.428L556.854 473.725H558.412L555.77 480.762C555.547 481.344 555.246 481.789 554.867 482.098C554.492 482.41 554.029 482.566 553.479 482.566C553.307 482.566 553.15 482.555 553.01 482.531C552.873 482.508 552.748 482.477 552.635 482.438ZM558.775 478.043H560.445V478.131C560.445 478.436 560.553 478.66 560.768 478.805C560.982 478.949 561.271 479.021 561.635 479.021C562.01 479.021 562.291 478.955 562.479 478.822C562.67 478.686 562.766 478.502 562.766 478.271C562.766 478.041 562.674 477.871 562.49 477.762C562.307 477.648 561.854 477.521 561.131 477.381C560.381 477.236 559.83 477.008 559.479 476.695C559.127 476.379 558.951 475.969 558.951 475.465C558.951 474.887 559.191 474.422 559.672 474.07C560.152 473.719 560.803 473.543 561.623 473.543C562.439 473.543 563.092 473.725 563.58 474.088C564.072 474.451 564.318 474.938 564.318 475.547V475.617H562.654V475.535C562.654 475.277 562.568 475.074 562.396 474.926C562.229 474.777 561.969 474.703 561.617 474.703C561.266 474.703 561.01 474.764 560.85 474.885C560.693 475.006 560.615 475.162 560.615 475.354C560.615 475.549 560.707 475.705 560.891 475.822C561.074 475.939 561.537 476.068 562.279 476.209C563.025 476.354 563.572 476.58 563.92 476.889C564.271 477.197 564.447 477.619 564.447 478.154C564.447 478.771 564.209 479.264 563.732 479.631C563.26 479.994 562.562 480.176 561.641 480.176C560.723 480.176 560.016 479.994 559.52 479.631C559.023 479.264 558.775 478.756 558.775 478.107V478.043ZM564.887 474.943V473.725H568.748V474.943H564.887ZM565.859 478.184V474.381L565.865 474.211V472.348H567.547V478.16C567.547 478.438 567.6 478.633 567.705 478.746C567.811 478.855 567.961 478.91 568.156 478.91C568.254 478.91 568.35 478.898 568.443 478.875C568.537 478.852 568.629 478.822 568.719 478.787V479.994C568.625 480.041 568.496 480.082 568.332 480.117C568.168 480.156 567.99 480.176 567.799 480.176C567.213 480.176 566.742 480.016 566.387 479.695C566.035 479.375 565.859 478.871 565.859 478.184ZM569.463 476.953V476.766C569.463 475.805 569.754 475.029 570.336 474.439C570.918 473.846 571.668 473.549 572.586 473.549C573.512 473.549 574.234 473.826 574.754 474.381C575.277 474.936 575.539 475.697 575.539 476.666V477.275H570.623V476.191H573.857V476.086C573.854 475.734 573.746 475.426 573.535 475.16C573.324 474.895 573.004 474.762 572.574 474.762C572.113 474.762 571.76 474.941 571.514 475.301C571.268 475.656 571.145 476.125 571.145 476.707V477.012C571.145 477.586 571.275 478.053 571.537 478.412C571.803 478.768 572.197 478.945 572.721 478.945C573.068 478.945 573.371 478.861 573.629 478.693C573.887 478.525 574.096 478.332 574.256 478.113L575.416 478.91C575.217 479.262 574.881 479.561 574.408 479.807C573.939 480.053 573.383 480.176 572.738 480.176C571.707 480.176 570.902 479.881 570.324 479.291C569.75 478.697 569.463 477.918 569.463 476.953ZM576.699 480V473.725H578.293L578.334 474.463H578.369C578.564 474.186 578.82 473.975 579.137 473.83C579.453 473.682 579.795 473.607 580.162 473.607C580.607 473.607 580.992 473.699 581.316 473.883C581.641 474.062 581.881 474.33 582.037 474.686H582.061C582.287 474.326 582.584 474.057 582.951 473.877C583.318 473.697 583.711 473.607 584.129 473.607C584.777 473.607 585.297 473.805 585.688 474.199C586.082 474.59 586.279 475.246 586.279 476.168V480H584.586V476.092C584.586 475.678 584.5 475.375 584.328 475.184C584.16 474.992 583.912 474.895 583.584 474.891C583.303 474.891 583.055 474.971 582.84 475.131C582.629 475.291 582.461 475.508 582.336 475.781V480H580.637V476.104C580.637 475.682 580.551 475.375 580.379 475.184C580.207 474.988 579.957 474.891 579.629 474.891C579.344 474.891 579.096 474.971 578.885 475.131C578.678 475.287 578.512 475.504 578.387 475.781V480H576.699ZM590.562 475.992V475.477C590.562 474.129 590.924 473.096 591.646 472.377C592.373 471.654 593.307 471.293 594.447 471.293C595.592 471.293 596.527 471.654 597.254 472.377C597.984 473.096 598.35 474.129 598.35 475.477V475.992C598.35 477.34 597.984 478.375 597.254 479.098C596.527 479.816 595.592 480.176 594.447 480.176C593.307 480.176 592.373 479.816 591.646 479.098C590.924 478.375 590.562 477.34 590.562 475.992ZM592.35 476.104C592.35 476.998 592.539 477.678 592.918 478.143C593.301 478.607 593.812 478.84 594.453 478.84C595.094 478.84 595.605 478.607 595.988 478.143C596.371 477.678 596.562 476.998 596.562 476.104V475.371C596.562 474.473 596.371 473.791 595.988 473.326C595.605 472.861 595.092 472.629 594.447 472.629C593.811 472.629 593.301 472.861 592.918 473.326C592.539 473.791 592.35 474.473 592.35 475.371V476.104ZM599.902 480V471.469H601.783L604.947 476.865C605.018 476.982 605.08 477.102 605.135 477.223C605.189 477.34 605.238 477.457 605.281 477.574H605.328C605.32 477.445 605.314 477.309 605.311 477.164C605.307 477.016 605.305 476.875 605.305 476.742V471.469H606.816V480H604.9L601.748 474.639C601.678 474.521 601.617 474.406 601.566 474.293C601.52 474.176 601.475 474.059 601.432 473.941H601.385C601.389 474.074 601.393 474.209 601.396 474.346C601.404 474.482 601.408 474.617 601.408 474.75V480H599.902Z" fill="white"/>
</g>
<g id="Property 1=Line 7">
<line id="Line 7" x1="497.002" y1="511.5" x2="1043" y2="513.572" stroke="white"/>
</g>
<g id="Property 1=Line 8">
<line id="Line 8" x1="464.5" y1="476" x2="464.5" y2="485" stroke="white"/>
</g>
<g id="Property 1=Line 9">
<line id="Line 9" x1="486.584" y1="491.723" x2="490.584" y2="485.723" stroke="white"/>
</g>
<g id="Property 1=Line 10">
<line id="Line 10" x1="436.317" y1="491.614" x2="441.257" y2="495.672" stroke="white"/>
</g>
<g id="Property 1=Vector 4">
<path id="Vector 4" d="M408.667 84C408.667 86.9455 411.054 89.3333 414 89.3333C416.946 89.3333 419.333 86.9455 419.333 84C419.333 81.0545 416.946 78.6667 414 78.6667C411.054 78.6667 408.667 81.0545 408.667 84ZM574.167 84C574.167 86.9455 576.554 89.3333 579.5 89.3333C582.446 89.3333 584.833 86.9455 584.833 84C584.833 81.0545 582.446 78.6667 579.5 78.6667C576.554 78.6667 574.167 81.0545 574.167 84ZM414 85H579.5V83H414V85Z" fill="#F8F9FA"/>
</g>
</g>
</svg>
