<?xml version="1.0" encoding="UTF-8"?>
<!DOCTYPE svg PUBLIC "-//W3C//DTD SVG 1.1//EN" "http://www.w3.org/Graphics/SVG/1.1/DTD/svg11.dtd">
<!-- Creator: CorelDRAW (Evaluation Version) -->
<svg xmlns="http://www.w3.org/2000/svg" xml:space="preserve" width="2000px" height="1000px" version="1.1" style="shape-rendering:geometricPrecision; text-rendering:geometricPrecision; image-rendering:optimizeQuality; fill-rule:evenodd; clip-rule:evenodd"
viewBox="0 0 2000 1000"
 xmlns:xlink="http://www.w3.org/1999/xlink"
 xmlns:xodm="http://www.corel.com/coreldraw/odm/2003">
 <defs>
  <style type="text/css">
   <![CDATA[
    .fil0 {fill:white;fill-rule:nonzero}
   ]]>
  </style>
 </defs>
 <g id="Layer_x0020_1">
  <metadata id="CorelCorpID_0Corel-Layer"/>
  <g id="_105553365682432">
   <path class="fil0" d="M137.24 423.8l0 100.55c0.34,15.76 0.34,15.76 21.45,15.76l39.81 0 0 56.98 -39.81 0c-42.57,0 -78.1,-30.84 -78.43,-72.4l0 -0.34 0 -100.55 -26.14 0 0.02 -58.99 26.14 0 -0.02 -12.07 0 -56.62 56.98 0 0 56.62 0 12.08 12.39 0 48.81 0 0.01 58.98 -48.81 0 -12.4 0z"/>
   <path class="fil0" d="M194.09 481.11c0,-59.66 50.61,-115.97 105.58,-116.3 17.1,0 33.86,5.36 48.6,14.74l0 -14.74 56.99 0 0 28.49 0 86.81 0 1 0 87.49 0 28.49 -56.99 0 0 -14.42c-14.74,9.06 -31.5,14.42 -48.6,14.42 -55.3,0 -105.58,-56.98 -105.58,-115.98zm56.98 0c0,37.55 19.11,59.33 48.6,59 29.16,0 48.27,-20.45 48.6,-56.98l0 -2.02c0,-37.87 -18.77,-58.99 -48.6,-59.32 -29.83,0 -48.6,21.45 -48.6,59.32z"/>
   <path class="fil0" d="M393.52 481.79c0,-59.33 50.62,-115.64 105.59,-115.98 15.75,0 31.17,4.69 45.25,12.74l-0.34 -16.09 56.98 0 0.34 28.15 1 69.05c1.68,7.38 2.35,14.75 2.35,22.13 0,6.03 -0.67,12.4 -1.68,18.43 0.67,31.51 1.01,63.35 1.68,94.86l0 0.33c0,21.45 -18.44,50.28 -30.17,61.68 -11.06,11.39 -39.88,31.17 -76.08,24.46 -26.48,-4.69 -39.22,-9.05 -60.34,-17.43l-17.76 -7.03 0 -61.68 39.22 15.76c19.44,7.71 26.81,10.39 48.6,14.07l0.33 0c13.74,2.69 21.79,-1.34 28.49,-8.71 7.38,-7.71 10.73,-16.76 10.73,-20.78l-0.34 -12.07c-14.41,9.05 -31.17,14.41 -48.26,14.41 -55.31,0 -105.59,-56.98 -105.59,-116.3zm56.98 0c0,37.87 19.11,59.66 48.61,59.32 24.46,0 41.89,-14.41 46.92,-40.89l-0.67 -38.88c-5.7,-24.81 -22.45,-38.21 -46.25,-38.55 -29.83,0 -48.61,21.45 -48.61,59z"/>
   <path class="fil0" d="M592.96 480.78c0,-59.33 50.61,-115.64 105.58,-115.97 17.1,0 33.75,5.47 48.6,14.8l0 -58.71 0 -24.86 56.99 0 0 24.86 0 158.71 0 1.17 0 87.82 0 28.49 -56.99 0 0 -14.47c-14.74,9.22 -31.39,14.58 -48.6,14.47 -55.3,0 -105.58,-56.98 -105.58,-116.31zm56.98 0c0,37.88 19.11,59.66 48.6,59.33 29.33,0 48.27,-20.39 48.6,-57.38l0 -1.95c0,-37.54 -18.77,-58.66 -48.6,-58.99 -29.83,0 -48.6,21.45 -48.6,58.99z"/>
   <path class="fil0" d="M921.78 383.24l7.03 -18.43 61.01 0 -15.09 38.54 -66.36 173.96c-1.34,5.36 -3.35,10.39 -6.04,15.42l-1.67 4.36 -1.01 0c-16.42,26.81 -49.27,48.6 -67.03,58.99l-42.57 24.13 0 -65.36 14.41 -8.38c17.43,-9.72 38.21,-23.8 46.26,-38.21l-63.02 -164.91 -15.08 -38.54 61 0 7.04 18.43 40.56 105.58 40.56 -105.58z"/>
   <path class="fil0" d="M1035.4 374.86c12.07,-6.37 25.14,-10.05 38.55,-10.05 49.27,0 95.86,50.27 95.53,101.22l0 102.57 0.33 28.82 -56.64 0 -0.34 -28.49 -0.34 -102.9c0,-29.16 -13.74,-43.91 -38.54,-44.24 -24.47,0 -38.55,15.08 -38.55,44.24l0 28.49 0 74.08 0 28.49 -56.98 0 0 -28.49 0 -74.08 0 -28.49 0 -72.73 0 -28.49 56.98 0 0 10.05z"/>
   <path class="fil0" d="M1157.75 481.11c0,-59.66 50.61,-115.97 105.58,-116.3 17.09,0 33.85,5.36 48.6,14.74l0 -14.74 56.98 0 0 28.49 0 86.81 0 1 0 87.49 0 28.49 -56.98 0 0 -14.42c-14.75,9.06 -31.51,14.42 -48.6,14.42 -55.31,0 -105.58,-56.98 -105.58,-115.98zm56.98 0c0,37.55 19.1,59.33 48.6,59 29.16,0 48.27,-20.45 48.6,-56.98l0 -2.02c0,-37.87 -18.77,-58.99 -48.6,-59.32 -29.83,0 -48.6,21.45 -48.6,59.32z"/>
   <path class="fil0" d="M1517.7 391.96c15.75,-16.09 35.87,-27.15 56.98,-27.15 44.58,0 85.81,48.26 85.47,94.85l0 108.94 0.34 28.82 -56.65 0 -0.33 -28.49 -0.34 -109.27c0,-26.14 -10.05,-37.54 -28.49,-37.87 -18.43,0 -28.49,11.39 -28.49,37.2l0 0.67 0 28.49 0 80.45 0.34 28.82 -56.65 0 -0.34 -28.49c0,-26.81 0,-53.96 -0.33,-80.78l0 0 0 -28.49c0,-26.14 -10.06,-37.54 -28.49,-37.87 -18.44,0 -28.49,11.73 -28.49,37.87l0 28.49 0 80.45 0 28.49 -56.98 0 0 -28.49 0 -80.45 0 -28.49 0 -66.36 0 -28.49 56.98 0 0 6.7c9.05,-4.36 18.77,-6.7 28.49,-6.7 21.12,0 41.56,10.72 56.98,27.15z"/>
   <path class="fil0" d="M1690.32 353.41l-28.49 0 0 -56.98 28.49 0 0.34 0 28.49 0 0 56.98 -28.49 0 -0.34 0zm-28.49 39.89l0 -28.49 56.98 0 0 28.49 0 175.3 0 28.49 -56.98 0 0 -28.49 0 -175.3z"/>
   <polygon class="fil0" points="1859.26,476.76 1918.58,550.83 1955.79,597.09 1882.72,597.09 1874.34,586.36 1822.72,522.01 1771.1,586.36 1762.72,597.09 1689.65,597.09 1726.86,550.83 1786.18,476.76 1733.56,411.06 1696.35,364.81 1769.43,364.81 1777.8,375.53 1822.72,431.51 1867.63,375.53 1876.01,364.81 1949.08,364.81 1911.88,411.06 "/>
  </g>
 </g>
</svg>
